<svg
viewBox="0 0 456 456" width="456" height="456"
    xmlns="http://www.w3.org/2000/svg"
    style="fill-rule:evenodd;clip-rule:evenodd;stroke-linejoin:round;stroke-miterlimit:2;">
	<g transform="translate(376,376)">
		<path fill-rule="evenodd" clip-rule="evenodd" d="M24.133 38.3122C42.2688 32.0612 45.3558 15.7777 43.0406 0.80603C43.0406 0.265816 43.5036 -0.120051 43.9666 0.034295C61.3306 8.52336 80.8556 27.045 80.8556 54.8274C80.8556 76.1272 64.3404 94.9576 40.3396 94.9576C31.7752 95.347 23.3252 92.8732 16.3231 87.9268C9.32094 82.9804 4.16546 75.8428 1.67037 67.641C-0.824724 59.439 -0.517334 50.6396 2.54402 42.6318C5.60538 34.624 11.2464 27.8636 18.5766 23.4178C19.0396 23.1092 19.657 23.4178 19.657 23.958C19.8886 26.8134 20.6603 33.9906 23.8244 38.3122H24.133Z" fill="white"/>
	</g>
</svg>